<svg width="73" height="46" viewBox="0 0 73 46" fill="none" xmlns="http://www.w3.org/2000/svg">
<g clip-path="url(#clip0_16_21)">
<path d="M56.8332 14.3647H55.0505L51.5161 8.93796C52.0169 8.68349 52.3625 8.15129 52.3625 7.53394V5.81552C52.3625 4.95156 51.6873 4.25135 50.8545 4.25135H48.5487C47.8763 4.25135 47.3072 4.70806 47.1127 5.33851L40.5593 2.72223V1.56417C40.5593 0.700207 39.884 0 39.0512 0H36.9591C36.1261 0 35.451 0.700371 35.451 1.56417V2.08408L28.7191 3.25983V2.85159C28.7191 1.99467 28.0494 1.29987 27.2231 1.29987H23.7749C22.9487 1.29987 22.2789 1.99451 22.2789 2.85159V5.61361C22.2789 6.06312 22.4642 6.4666 22.7587 6.75006L19.5225 10.3315C19.4019 10.2886 19.2731 10.264 19.1386 10.264H17.5783C16.9253 10.264 16.396 10.8131 16.396 11.4904V12.6124C16.396 13.2897 16.9253 13.8388 17.5783 13.8388H17.7911L17.074 16.9483H16.2097C15.5567 16.9483 15.0273 17.4973 15.0273 18.1746V19.2966C15.0273 19.9739 15.5567 20.523 16.2097 20.523H17.77C17.8342 20.523 17.8967 20.5163 17.9581 20.506L19.3542 22.2511C19.2513 22.3628 19.1872 22.5134 19.1872 22.6801V23.5008C19.1872 23.8444 19.4557 24.1229 19.787 24.1229H20.8547C21.1859 24.1229 21.4544 23.8444 21.4544 23.5008V23.3174L23.4063 23.1833V23.7307C23.4063 24.4961 24.0045 25.1168 24.7425 25.1168H26.4103C26.7569 25.1168 27.0713 24.9789 27.3088 24.7545L29.263 26.3957C29.1075 26.6221 29.0153 26.8985 29.0153 27.1977V28.5692C29.0153 29.3345 29.6134 29.9552 30.3515 29.9552H32.2283C32.9662 29.9552 33.5646 29.3347 33.5646 28.5692V27.8026L35.6665 27.6749V27.7401C35.6665 28.139 35.9782 28.4622 36.3628 28.4622H37.2983C37.4839 28.4622 37.6514 28.3857 37.7762 28.2631L39.0036 29.1605C38.9339 29.3019 38.894 29.4616 38.894 29.6314V31.4189C38.894 31.9927 39.3424 32.4578 39.8956 32.4578H42.1364C42.1647 32.4578 42.1926 32.4558 42.2203 32.4534L44.0763 35.0408C43.8195 35.2044 43.6478 35.4975 43.6478 35.8331V37.056C43.6478 37.5697 44.0493 37.9861 44.5445 37.9861H46.1364C46.6316 37.9861 47.0331 37.5697 47.0331 37.056V35.8331C47.0331 35.3194 46.6316 34.903 46.1364 34.903H45.4498L45.3216 31.7723H45.4431C45.7333 31.7723 45.9684 31.5283 45.9684 31.2275V30.6852C45.9684 30.6765 45.9663 30.6685 45.9659 30.66L49.0942 28.9489C49.4566 29.5523 50.1001 29.9553 50.8362 29.9553H53.2043C54.3382 29.9553 55.2573 29.0019 55.2573 27.8259V26.1882C55.2573 25.0511 54.3974 24.1249 53.3158 24.0646L55.5034 18.2298H56.8335C57.3867 18.2298 57.8351 17.7647 57.8351 17.1909V15.4034C57.8348 14.8298 57.3862 14.3647 56.8332 14.3647ZM54.4831 14.3711C53.9815 14.4276 53.5909 14.8681 53.5909 15.4034V16.3709L52.3625 16.4991V16.4341C52.3625 15.406 51.5591 14.5727 50.5679 14.5727H49.9385V9.09828H50.8545C50.9176 9.09828 50.9794 9.09304 51.0405 9.08518L54.4831 14.3711ZM49.4647 9.09828V14.5727H48.3499C48.1229 14.5727 47.9066 14.6182 47.7066 14.698L45.0333 11.9959C45.391 11.5993 45.6116 11.0679 45.6116 10.4818V8.7431L47.155 8.13148C47.3814 8.69888 47.9197 9.09828 48.5485 9.09828H49.4647ZM44.9529 22.1938H43.76L43.2239 18.5837H43.5142C44.0674 18.5837 44.5158 18.1186 44.5158 17.5448V17.0319L46.5552 17.0485V18.0002C46.5552 18.6226 46.8508 19.1722 47.3032 19.5102L45.1676 22.2152C45.0979 22.2016 45.0263 22.1938 44.9529 22.1938ZM44.7013 30.1402C44.4468 30.1402 44.2348 30.328 44.1865 30.5773L43.1377 30.3169V29.6316C43.1377 29.0814 42.7248 28.6322 42.2032 28.5963L43.4242 26.1305H43.9722L44.7191 30.1402H44.7013ZM39.3139 28.7868L37.987 27.8167C37.9897 27.7913 37.9944 27.7664 37.9944 27.7404V27.1136L41.8633 25.3457C42.0209 25.7862 42.4192 26.104 42.8931 26.1278L41.6724 28.5929H39.8952C39.6783 28.5927 39.478 28.6651 39.3139 28.7868ZM35.219 17.6991L34.3451 16.1303C35.2944 15.9561 36.0262 15.1344 36.1017 14.1198L40.5591 16.038V17.5448C40.5591 17.5771 40.561 17.609 40.5638 17.6406L39.5094 18.3385C39.2348 17.9514 38.7939 17.6991 38.295 17.6991H35.219ZM24.0048 14.8768C23.6707 14.8768 23.3662 15.0048 23.1319 15.2149L20.2372 13.0639C20.2908 12.924 20.3209 12.7721 20.3209 12.6126V12.3052L28.2166 12.5204V13.9473C28.2166 14.1532 28.2458 14.3515 28.2963 14.5406L26.9627 15.4503C26.7199 15.1033 26.3268 14.8766 25.8817 14.8766H24.0048V14.8768ZM27.1692 15.8973L28.4755 15.0065C28.838 15.6975 29.5441 16.1665 30.3559 16.1665H33.8183L34.6721 17.6991H34.5949C33.7619 17.6991 33.0869 18.3994 33.0869 19.2632V19.3504L27.218 17.3802V16.2626C27.2177 16.136 27.2 16.0139 27.1692 15.8973ZM37.03 4.65255H39.0509C39.0519 4.65255 39.0527 4.65238 39.0536 4.65238L40.2241 6.46595C39.3278 6.73041 38.6706 7.58405 38.6706 8.59867V10.0813L36.0972 10.9592C36.002 10.0308 35.3544 9.27611 34.5024 9.04948L37.03 4.65255ZM41.9246 12.7008L42.0117 14.98H41.5605C41.1693 14.98 40.8314 15.2131 40.6666 15.5523L36.11 13.5915V11.4719L38.6763 10.5963C38.7341 11.7683 39.6658 12.7008 40.8101 12.7008H41.9246ZM39.7277 18.7767L40.7249 18.1166C40.9041 18.3978 41.2113 18.5837 41.5605 18.5837H42.7446L43.2807 22.1938H42.9495C42.4827 22.1938 42.0813 22.4805 41.8974 22.893L39.8027 22.0359V19.2636C39.803 19.0933 39.776 18.93 39.7277 18.7767ZM46.5552 16.4341V16.5572L44.5158 16.5407V16.0188C44.5158 15.445 44.0674 14.98 43.5142 14.98H42.4858L42.3987 12.7008H43.4721C43.9174 12.7008 44.3307 12.5595 44.6733 12.318L47.274 14.9467C46.8383 15.2863 46.5552 15.8252 46.5552 16.4341ZM40.5514 3.24542L47.0404 5.83599V7.53394C47.0404 7.57275 47.0432 7.61058 47.0459 7.64873L45.5794 8.22989C45.4098 7.18024 44.532 6.37949 43.4719 6.37949H40.81C40.7864 6.37949 40.7637 6.38227 40.7405 6.38309L39.5626 4.55806C40.0978 4.35763 40.493 3.8536 40.5514 3.24542ZM35.4507 2.58222V3.08822C35.4507 3.79301 35.9002 4.38858 36.518 4.5841L33.992 8.97841C33.9849 8.97841 33.9779 8.97726 33.9707 8.97726H30.3559C30.2348 8.97726 30.1169 8.9902 30.0012 9.01018L28.0511 6.90546C28.4535 6.62741 28.7188 6.15285 28.7188 5.61361V3.75797L35.4507 2.58222ZM23.1582 7.02615C23.3464 7.11474 23.5548 7.16517 23.7749 7.16517H27.2231C27.3498 7.16517 27.4722 7.147 27.5898 7.11621L29.4906 9.16787C28.7406 9.51273 28.2167 10.2904 28.2167 11.1963V12.0288L20.3211 11.8136V11.4905C20.3211 11.1337 20.1733 10.8136 19.9388 10.5894L23.1582 7.02615ZM18.278 13.8389H19.1386C19.467 13.8389 19.7639 13.6999 19.9782 13.4757L22.8327 15.597C22.7282 15.7946 22.6684 16.0214 22.6684 16.2628V17.1122L18.9411 18.0156C18.8656 17.4138 18.3707 16.9486 17.7698 16.9486H17.5608L18.278 13.8389ZM18.9523 19.2968V18.517L22.6684 17.6164V17.6341C22.6684 18.1379 22.9285 18.5778 23.3161 18.8203L20.8822 22.0611C20.8728 22.0606 20.864 22.0582 20.8545 22.0582H19.8151L18.4232 20.3185C18.7422 20.0989 18.9523 19.7234 18.9523 19.2968ZM23.4063 22.5501V22.6914L21.4544 22.8255V22.6804C21.4544 22.5295 21.4006 22.393 21.3144 22.2853L23.7822 18.9994C23.8546 19.012 23.9287 19.0202 24.0046 19.0202H24.9219L25.2026 21.1642H24.7425C24.0045 21.1641 23.4063 21.7845 23.4063 22.5501ZM25.6806 21.1641L25.3999 19.0201H25.8816C26.5355 19.0201 27.0788 18.5324 27.1943 17.8889L33.0869 19.8668V21.166L27.7292 22.3362C27.6299 21.6725 27.0781 21.1641 26.4105 21.1641H25.6806ZM30.3514 25.812C30.0741 25.812 29.8166 25.8997 29.6032 26.0496L27.5975 24.3653C27.6921 24.1752 27.7466 23.9598 27.7466 23.7312V22.8347L33.0867 21.6684V22.2522C33.0867 22.8894 33.4546 23.4366 33.9815 23.6805L32.366 25.8196C32.3207 25.8148 32.2748 25.8122 32.2282 25.8122H30.3514V25.812ZM35.6664 27.0643V27.1831L33.5644 27.3109V27.1979C33.5644 26.6662 33.2754 26.2049 32.8518 25.9725L34.4847 23.8103C34.5212 23.8131 34.5576 23.8161 34.5947 23.8161H36.4899L36.5628 26.3419H36.3625C35.978 26.3421 35.6664 26.6654 35.6664 27.0643ZM37.0367 26.3421L36.9638 23.8162H38.295C39.0288 23.8162 39.6395 23.2724 39.7746 22.5524L41.791 23.3775C41.7909 23.3839 41.7901 23.3901 41.7901 23.3967V24.8425L37.8583 26.6388C37.7316 26.4597 37.5288 26.3421 37.2982 26.3421H37.0367ZM44.9752 34.903H44.5674L42.6893 32.2849C42.9594 32.0988 43.1377 31.7807 43.1377 31.4191V30.8221L44.176 31.0798V31.2274C44.176 31.5283 44.4113 31.7722 44.7013 31.7722H44.847L44.9752 34.903ZM45.7333 30.2316C45.6501 30.1741 45.5503 30.1404 45.4427 30.1404H45.2013L44.4544 26.1307H44.9529C45.5652 26.1307 46.0655 25.6381 46.1084 25.0144L48.8176 25.807C48.7959 25.9309 48.7828 26.058 48.7828 26.1885V27.8262C48.7828 28.0636 48.822 28.2913 48.8911 28.5046L45.7333 30.2316ZM48.9548 25.3365L46.1125 24.505V23.3965C46.1125 22.9909 45.9183 22.6329 45.6217 22.415L47.7296 19.745C47.9232 19.819 48.1314 19.8616 48.3498 19.8616H49.8785L50.9942 24.0587H50.8358C49.9942 24.0589 49.2718 24.5847 48.9548 25.3365ZM52.8093 24.0589H51.4855L50.3698 19.8618H50.5676C51.5588 19.8618 52.3622 19.0284 52.3622 18.0004V16.9931L53.5906 16.8649V17.1911C53.5906 17.7649 54.039 18.23 54.5922 18.23H54.9946L52.8093 24.0589Z" fill="white"/>
<path d="M40.0729 44.7589C39.986 44.8098 39.8981 44.6944 39.9676 44.6202C41.1134 43.3966 44.5681 39.9108 48.4276 37.9862C53.1629 35.6247 57.4764 34.5063 58.1797 34.2145C58.8831 33.9227 60.4771 32.6476 60.4302 29.3461C60.3834 26.0447 60.4312 4.65252 60.4312 4.65252C60.4312 4.65252 60.2896 3.38294 61.6023 3.09113C62.915 2.79932 65.0838 2.22013 65.0527 4.42441C65.0216 6.62868 65.053 34.9029 65.053 34.9029C65.053 34.9029 65.334 36.5591 62.9918 36.687C60.6825 36.8131 51.7664 37.8911 40.0729 44.7589Z" fill="white"/>
<path d="M45.3867 45.9954C45.246 46.0329 45.1679 45.834 45.2937 45.7588C46.9361 44.7792 50.936 42.5494 54.9471 41.5006C60.1725 40.1342 63.1145 39.9521 64.1683 39.6788C65.2222 39.4055 68.0325 38.6806 67.9446 33.8736C67.8566 29.0666 67.9466 8.43489 67.9466 8.43489C67.9466 8.43489 67.7095 6.84845 69.169 6.55173C70.6286 6.25484 72.7463 5.27527 72.7751 7.91727C72.7994 10.163 72.8804 31.9244 72.8747 38.3427C72.8739 39.1633 72.8995 39.9835 72.9816 40.7997C73.0632 41.6108 72.9086 42.7353 71.761 42.795C70.1175 42.8805 55.0065 43.4348 45.3867 45.9954Z" fill="white"/>
<path d="M32.9272 44.7589C33.014 44.8098 33.1019 44.6944 33.0325 44.6202C31.8866 43.3966 28.432 39.9108 24.5724 37.9862C19.8371 35.6247 15.5236 34.5063 14.8203 34.2145C14.1169 33.9227 12.5229 32.6476 12.5698 29.3461C12.6166 26.0447 12.569 4.65252 12.569 4.65252C12.569 4.65252 12.7106 3.38294 11.3979 3.09113C10.0851 2.79932 7.91638 2.22013 7.94749 4.42441C7.97859 6.62868 7.94717 34.9029 7.94717 34.9029C7.94717 34.9029 7.66615 36.5591 10.0084 36.687C12.3175 36.8131 21.2338 37.8911 32.9272 44.7589Z" fill="white"/>
<path d="M27.6132 45.9954C27.7539 46.0329 27.832 45.834 27.7062 45.7588C26.0638 44.7792 22.0639 42.5494 18.0527 41.5006C12.8274 40.1342 9.88537 39.9521 8.83155 39.6788C7.77774 39.4055 4.9674 38.6806 5.05533 33.8736C5.14311 29.0668 5.05328 8.43489 5.05328 8.43489C5.05328 8.43489 5.29041 6.84845 3.83085 6.55173C2.37129 6.25484 0.253552 5.27527 0.224819 7.91727C0.200506 10.1628 0.119516 31.9244 0.125199 38.3427C0.125989 39.1633 0.100413 39.9835 0.0183177 40.7997C-0.0633039 41.6108 0.0912561 42.7353 1.23885 42.795C2.88234 42.8805 17.9935 43.4348 27.6132 45.9954Z" fill="white"/>
</g>
<defs>
<clipPath id="clip0_16_21">
<rect width="73" height="46" fill="white"/>
</clipPath>
</defs>
</svg>
