<svg width="329" height="329" viewBox="0 0 329 329" fill="none" xmlns="http://www.w3.org/2000/svg">
<circle cx="164.201" cy="164.343" r="158.737" stroke="#C6C6C6" stroke-width="10.5047"/>
<path fill-rule="evenodd" clip-rule="evenodd" d="M169.453 282.698C167.712 282.774 165.961 282.813 164.201 282.813C98.7721 282.813 45.7316 229.772 45.7316 164.343C45.7316 98.9144 98.7721 45.8738 164.201 45.8738C229.63 45.8738 282.67 98.9144 282.67 164.343C282.67 220.747 243.253 267.944 190.462 279.892V290.642C249.1 278.512 293.175 226.575 293.175 164.343C293.175 93.1128 235.431 35.3691 164.201 35.3691C92.9706 35.3691 35.2269 93.1128 35.2269 164.343C35.2269 235.574 92.9706 293.317 164.201 293.317C165.96 293.317 167.711 293.282 169.453 293.212V282.698Z" fill="#404040"/>
<line x1="164.201" y1="293.317" x2="164.201" y2="213.9" stroke="#404040" stroke-width="10.5047"/>
<path d="M163.909 99.5645L163.909 135.767" stroke="#72777C" stroke-width="7.58671"/>
<circle cx="164.154" cy="90.7639" r="11.0883" transform="rotate(126 164.154 90.7639)" stroke="#72777C" stroke-width="7.00311"/>
<line x1="189.349" y1="125.795" x2="172.442" y2="142.698" stroke="#72777C" stroke-width="7.58671"/>
<line x1="163.909" y1="160.258" x2="163.909" y2="196.441" stroke="#72777C" stroke-width="7.58671"/>
<circle cx="164.201" cy="147.522" r="11.0883" transform="rotate(126 164.201 147.522)" stroke="#72777C" stroke-width="7.00311"/>
<circle cx="195.575" cy="119.944" r="11.0883" transform="rotate(126 195.575 119.944)" stroke="#404040" stroke-width="7.00311"/>
<line y1="-3.79335" x2="23.9072" y2="-3.79335" transform="matrix(0.70719 0.707023 0.707023 -0.70719 141.735 123.111)" stroke="#72777C" stroke-width="7.58671"/>
<circle r="11.0883" transform="matrix(0.587786 0.809017 0.809017 -0.587786 132.827 119.943)" stroke="#72777C" stroke-width="7.00311"/>
<line x1="188.883" y1="182.895" x2="171.976" y2="199.798" stroke="#787878" stroke-width="7.58671"/>
<line y1="-3.79335" x2="23.9072" y2="-3.79335" transform="matrix(0.70719 0.707023 0.707023 -0.70719 204.017 180.212)" stroke="#72777C" stroke-width="7.58671"/>
<circle r="11.0883" transform="matrix(0.587786 0.809017 0.809017 -0.587786 226.017 204.962)" stroke="#404040" stroke-width="7.00311"/>
<line x1="219.792" y1="154.976" x2="202.885" y2="171.879" stroke="#72777C" stroke-width="7.58671"/>
<circle cx="195.109" cy="177.043" r="11.0883" transform="rotate(126 195.109 177.043)" stroke="#72777C" stroke-width="7.00311"/>
<circle cx="226.018" cy="149.124" r="11.0883" transform="rotate(126 226.018 149.124)" stroke="#72777C" stroke-width="7.00311"/>
<line y1="-3.79335" x2="23.9072" y2="-3.79335" transform="matrix(0.70719 0.707023 0.707023 -0.70719 142.2 180.212)" stroke="#787878" stroke-width="7.58671"/>
<line x1="127.067" y1="182.895" x2="110.16" y2="199.798" stroke="#787878" stroke-width="7.58671"/>
<circle cx="102.384" cy="204.962" r="11.0883" transform="rotate(126 102.384 204.962)" stroke="#787878" stroke-width="7.00311"/>
<line y1="-3.79335" x2="23.9072" y2="-3.79335" transform="matrix(0.70719 0.707023 0.707023 -0.70719 111.291 152.293)" stroke="#787878" stroke-width="7.58671"/>
<circle r="11.0883" transform="matrix(0.587786 0.809017 0.809017 -0.587786 133.292 177.043)" stroke="#404040" stroke-width="7.00311"/>
<circle r="11.0883" transform="matrix(0.587786 0.809017 0.809017 -0.587786 102.384 149.124)" stroke="#72777C" stroke-width="7.00311"/>
<circle cx="164.201" cy="204.279" r="11.0883" transform="rotate(126 164.201 204.279)" stroke="#72777C" stroke-width="7.00311"/>
</svg>
