<svg width="328" height="329" viewBox="0 0 328 329" fill="none" xmlns="http://www.w3.org/2000/svg">
<circle cx="164.002" cy="164.744" r="158.737" stroke="#707070" stroke-width="10.5047"/>
<path fill-rule="evenodd" clip-rule="evenodd" d="M169.255 283.1C167.514 283.176 165.763 283.214 164.003 283.214C98.5739 283.214 45.5334 230.173 45.5334 164.745C45.5334 99.3157 98.5739 46.2752 164.003 46.2752C229.432 46.2752 282.472 99.3157 282.472 164.745C282.472 221.148 243.055 268.346 190.264 280.293V291.043C248.901 278.913 292.977 226.976 292.977 164.745C292.977 93.5141 235.233 35.7705 164.003 35.7705C92.7723 35.7705 35.0287 93.5141 35.0287 164.745C35.0287 235.975 92.7723 293.719 164.003 293.719C165.762 293.719 167.513 293.683 169.255 293.614V283.1Z" fill="#F6F6F6"/>
<line x1="164.002" y1="293.719" x2="164.002" y2="214.302" stroke="#F6F6F6" stroke-width="10.5047"/>
<path d="M163.711 99.9658L163.711 136.168" stroke="#F6F6F6" stroke-width="7.58671"/>
<circle cx="163.955" cy="91.1652" r="11.0883" transform="rotate(126 163.955 91.1652)" stroke="#F6F6F6" stroke-width="7.00311"/>
<line x1="189.15" y1="126.196" x2="172.244" y2="143.099" stroke="#F6F6F6" stroke-width="7.58671"/>
<line x1="163.711" y1="160.659" x2="163.711" y2="196.842" stroke="#F6F6F6" stroke-width="7.58671"/>
<circle cx="164.003" cy="147.923" r="11.0883" transform="rotate(126 164.003 147.923)" stroke="#F6F6F6" stroke-width="7.00311"/>
<circle cx="195.376" cy="120.345" r="11.0883" transform="rotate(126 195.376 120.345)" stroke="#F6F6F6" stroke-width="7.00311"/>
<line y1="-3.79335" x2="23.9072" y2="-3.79335" transform="matrix(0.70719 0.707023 0.707023 -0.70719 141.537 123.513)" stroke="#F6F6F6" stroke-width="7.58671"/>
<circle r="11.0883" transform="matrix(0.587786 0.809017 0.809017 -0.587786 132.629 120.344)" stroke="#F6F6F6" stroke-width="7.00311"/>
<line x1="188.685" y1="183.296" x2="171.778" y2="200.199" stroke="#F6F6F6" stroke-width="7.58671"/>
<line y1="-3.79335" x2="23.9072" y2="-3.79335" transform="matrix(0.70719 0.707023 0.707023 -0.70719 203.818 180.613)" stroke="#F6F6F6" stroke-width="7.58671"/>
<circle r="11.0883" transform="matrix(0.587786 0.809017 0.809017 -0.587786 225.819 205.363)" stroke="#F6F6F6" stroke-width="7.00311"/>
<line x1="219.594" y1="155.377" x2="202.687" y2="172.28" stroke="#F6F6F6" stroke-width="7.58671"/>
<circle cx="194.911" cy="177.445" r="11.0883" transform="rotate(126 194.911 177.445)" stroke="#F6F6F6" stroke-width="7.00311"/>
<circle cx="225.819" cy="149.526" r="11.0883" transform="rotate(126 225.819 149.526)" stroke="#F6F6F6" stroke-width="7.00311"/>
<line y1="-3.79335" x2="23.9072" y2="-3.79335" transform="matrix(0.70719 0.707023 0.707023 -0.70719 142.002 180.613)" stroke="#F6F6F6" stroke-width="7.58671"/>
<line x1="126.868" y1="183.296" x2="109.961" y2="200.199" stroke="#F6F6F6" stroke-width="7.58671"/>
<circle cx="102.186" cy="205.363" r="11.0883" transform="rotate(126 102.186 205.363)" stroke="#F6F6F6" stroke-width="7.00311"/>
<line y1="-3.79335" x2="23.9072" y2="-3.79335" transform="matrix(0.70719 0.707023 0.707023 -0.70719 111.093 152.694)" stroke="#F6F6F6" stroke-width="7.58671"/>
<circle r="11.0883" transform="matrix(0.587786 0.809017 0.809017 -0.587786 133.094 177.445)" stroke="#F6F6F6" stroke-width="7.00311"/>
<circle r="11.0883" transform="matrix(0.587786 0.809017 0.809017 -0.587786 102.185 149.526)" stroke="#F6F6F6" stroke-width="7.00311"/>
<circle cx="164.003" cy="204.681" r="11.0883" transform="rotate(126 164.003 204.681)" stroke="#F6F6F6" stroke-width="7.00311"/>
</svg>
